<?xml version="1.0" standalone="no"?>
<!DOCTYPE svg PUBLIC "-//W3C//DTD SVG 20010904//EN"
 "http://www.w3.org/TR/2001/REC-SVG-20010904/DTD/svg10.dtd">
<svg version="1.0" xmlns="http://www.w3.org/2000/svg"
 width="1520.000000pt" height="1520.000000pt" viewBox="0 0 1520.000000 1520.000000"
 preserveAspectRatio="xMidYMid meet">
<metadata>
Created by potrace 1.14, written by Peter Selinger 2001-2017
</metadata>
<g transform="translate(0.000000,1520.000000) scale(0.100000,-0.100000)"
fill="#000000" stroke="none">
<path d="M7579 12936 c-2 -2 -110 -7 -239 -10 -129 -4 -269 -9 -310 -11 -287
-15 -329 -18 -495 -30 -126 -10 -185 -14 -255 -20 -36 -4 -88 -8 -116 -10 -28
-2 -64 -6 -80 -9 -16 -2 -63 -8 -104 -12 -41 -3 -86 -8 -100 -9 -14 -2 -50 -6
-80 -9 -95 -10 -268 -33 -310 -41 -14 -2 -47 -7 -75 -10 -27 -3 -72 -10 -100
-15 -27 -5 -68 -12 -90 -15 -153 -21 -561 -99 -651 -124 -19 -5 -34 -8 -34 -6
0 1 -93 -22 -207 -51 -115 -30 -216 -56 -226 -58 -70 -18 -318 -98 -444 -142
-498 -177 -899 -400 -1129 -629 -50 -49 -99 -105 -109 -124 -26 -52 -21 -110
19 -197 46 -98 90 -163 246 -359 408 -513 577 -824 649 -1189 11 -59 12 -493
0 -586 -25 -204 -68 -333 -289 -865 -62 -148 -119 -299 -126 -335 -13 -60 -19
-290 -10 -335 2 -11 7 -49 11 -85 3 -36 8 -72 10 -80 2 -8 7 -35 10 -60 4 -24
8 -47 10 -50 2 -3 6 -25 10 -50 4 -25 8 -47 10 -50 2 -3 6 -21 9 -40 13 -75
118 -471 165 -620 19 -60 26 -97 20 -101 -6 -3 -97 -25 -202 -48 -106 -24
-320 -72 -477 -108 -157 -35 -296 -67 -310 -69 -29 -6 -527 -118 -780 -175
-96 -22 -186 -42 -200 -45 -14 -3 -65 -14 -115 -25 -49 -12 -99 -22 -110 -25
-53 -10 -115 -28 -115 -33 0 -3 75 -5 167 -4 93 1 858 4 1701 6 844 3 1536 7
1538 10 2 2 -18 50 -46 106 -27 56 -50 104 -50 106 0 2 -15 37 -34 77 -147
319 -320 780 -381 1018 -100 387 -72 814 82 1270 65 193 114 307 253 595 37
77 73 158 80 180 7 22 15 45 19 50 3 6 6 15 7 20 2 6 12 46 23 90 52 196 49
427 -8 648 -44 167 -151 417 -222 519 -11 14 -19 29 -19 33 0 27 -265 392
-428 589 -94 114 -110 146 -83 170 32 28 730 249 951 301 8 2 98 24 200 50
102 26 195 49 208 51 13 3 80 18 150 34 124 28 512 108 562 114 14 2 108 18
209 35 101 17 200 33 220 36 20 3 45 6 56 9 11 2 47 7 80 10 33 4 67 9 75 11
8 2 40 6 71 10 31 3 65 7 75 9 11 2 51 7 89 10 39 4 84 9 100 11 46 7 112 13
200 20 44 4 96 8 115 10 19 3 76 7 125 10 50 3 108 8 130 10 198 22 854 22
1045 0 19 -2 80 -6 135 -10 137 -8 226 -15 250 -20 11 -2 56 -7 100 -10 44 -4
90 -8 101 -10 12 -2 48 -6 80 -10 67 -7 86 -10 204 -25 150 -19 163 -21 260
-36 52 -8 109 -17 125 -20 17 -2 41 -6 55 -9 14 -3 39 -7 55 -9 26 -4 153 -26
240 -41 74 -13 392 -79 515 -107 74 -17 162 -36 195 -44 343 -76 1254 -346
1301 -385 29 -24 11 -78 -48 -141 -59 -61 -255 -317 -359 -468 -86 -124 -205
-338 -260 -465 -42 -100 -90 -260 -110 -370 -20 -113 -17 -337 6 -460 23 -117
67 -239 152 -415 99 -204 114 -236 166 -365 77 -189 150 -424 177 -575 7 -36
14 -76 17 -90 24 -127 33 -383 18 -530 -11 -102 -13 -117 -31 -212 -42 -231
-291 -883 -498 -1307 -20 -41 -34 -76 -32 -78 2 -3 694 -7 1538 -10 843 -2
1615 -5 1715 -6 177 -2 217 3 131 17 -24 4 -90 18 -148 32 -58 13 -125 29
-150 35 -84 19 -805 180 -875 195 -38 9 -77 17 -85 19 -8 2 -44 10 -80 18 -36
8 -200 45 -365 82 -165 37 -365 82 -445 100 -105 23 -145 36 -143 46 2 19 7
38 47 169 35 118 83 289 91 325 2 11 15 65 29 120 27 110 62 285 71 355 4 25
8 59 11 76 3 17 7 48 9 70 6 52 7 264 1 289 -2 11 -7 39 -11 63 -4 24 -50 145
-102 270 -209 501 -275 685 -299 827 -2 17 -8 55 -13 85 -5 30 -8 179 -7 330
2 263 4 279 29 375 37 136 69 218 144 365 74 145 80 155 186 315 90 135 157
225 297 400 182 227 247 331 273 432 23 92 1 138 -126 259 -253 243 -693 477
-1242 659 -162 54 -239 78 -290 91 -5 1 -68 18 -139 38 -183 51 -589 140 -821
181 -208 36 -221 38 -340 55 -172 25 -206 29 -250 34 -22 3 -76 10 -120 15
-44 6 -107 13 -140 16 -33 3 -71 8 -85 10 -14 3 -56 7 -95 11 -38 3 -86 7
-105 9 -19 2 -69 6 -110 10 -41 3 -95 8 -120 10 -42 4 -82 7 -275 20 -203 14
-417 24 -660 30 -115 3 -226 8 -246 10 -20 3 -38 3 -40 1z"/>
<path d="M6712 11614 c-121 -55 -195 -170 -227 -351 -8 -47 -17 -89 -20 -92
-3 -2 -18 4 -33 15 -35 27 -77 105 -105 196 -12 40 -28 82 -34 93 -12 19 -15
18 -53 -23 l-40 -44 5 71 c4 58 2 73 -10 77 -37 15 -235 -166 -275 -251 -58
-120 -12 -233 144 -353 37 -29 27 -28 -104 3 -184 45 -319 156 -375 310 -24
64 -21 62 -45 34 -84 -99 -122 -187 -126 -295 -5 -142 47 -261 185 -418 29
-32 50 -60 48 -62 -8 -8 -136 56 -184 92 -107 80 -162 170 -189 308 -10 47
-21 86 -27 86 -17 0 -146 -142 -189 -207 -146 -225 -77 -397 208 -523 76 -34
91 -49 52 -51 -13 -1 -32 -2 -43 -3 -47 -3 -213 71 -306 136 -9 6 -23 9 -31 6
-29 -12 6 -243 53 -342 50 -107 164 -190 279 -203 85 -9 88 -16 23 -51 -166
-88 -330 -109 -453 -58 -109 46 -103 47 -95 -15 16 -127 98 -315 173 -394 98
-105 234 -158 396 -154 72 2 216 25 271 44 41 14 -29 -34 -95 -66 -135 -65
-268 -71 -418 -20 -49 17 -94 31 -100 31 -14 0 11 -92 40 -150 87 -171 269
-221 565 -155 37 9 78 18 91 20 33 8 28 -18 -12 -53 -48 -42 -117 -56 -240
-49 -55 3 -114 9 -131 12 -94 18 -148 26 -152 21 -18 -18 166 -149 241 -171
111 -33 201 -13 333 77 23 15 44 28 46 28 14 0 15 -35 3 -59 -24 -46 -106 -91
-259 -141 -38 -12 -65 -26 -60 -31 17 -17 220 -77 288 -85 39 -4 73 -9 78 -10
4 -1 14 -2 23 -3 18 -1 12 -12 -101 -186 -104 -159 -171 -233 -313 -344 -285
-222 -397 -381 -543 -771 -88 -234 -221 -687 -283 -963 l-6 -27 282 5 c156 3
389 7 518 10 506 9 912 17 1055 20 83 2 184 4 225 4 l75 1 40 72 c40 71 201
318 214 328 4 3 28 33 54 66 111 147 264 289 470 437 216 156 417 367 570 598
52 78 126 214 127 231 0 21 -231 156 -345 202 -176 71 -276 93 -440 96 l-90 2
45 20 c74 35 137 47 218 43 100 -5 168 -28 377 -130 219 -107 258 -119 367
-119 81 0 91 2 170 41 45 23 146 85 223 137 430 293 488 326 600 347 152 28
269 -18 423 -166 201 -193 213 -200 317 -191 39 3 85 10 103 15 33 10 45 3 38
-21 -5 -12 -11 -47 -21 -113 -3 -16 -9 -52 -14 -80 -6 -27 -13 -70 -16 -95 -4
-25 -11 -65 -15 -90 l-9 -45 72 -70 c284 -273 533 -463 557 -424 11 17 57 156
65 194 15 77 19 176 10 240 -7 46 -7 81 -1 103 10 33 8 35 -65 102 l-74 68 22
61 c29 82 22 100 -84 197 -101 92 -98 89 -233 214 -56 52 -117 108 -134 123
-93 86 -275 258 -390 370 -141 137 -200 175 -312 200 -125 28 -275 -19 -779
-244 -11 -5 -60 -19 -110 -31 -103 -24 -345 -32 -366 -11 -18 18 47 29 199 34
40 1 75 5 78 10 13 22 -192 116 -343 156 -85 23 -119 26 -258 27 -206 1 -330
-26 -524 -115 -46 -22 -87 -39 -91 -39 -16 0 3 40 36 78 69 81 200 133 389
156 112 13 154 16 228 18 42 1 77 3 77 4 0 1 -71 25 -157 53 -87 29 -167 56
-178 61 -11 5 -61 25 -112 44 -386 146 -709 336 -907 531 -144 142 -227 284
-242 409 -7 55 0 106 14 106 4 0 20 -31 37 -67 75 -167 176 -278 319 -348 144
-70 279 -88 529 -69 96 7 110 2 122 -44 14 -55 45 -110 84 -145 49 -44 79 -60
156 -82 33 -10 64 -21 70 -26 14 -14 79 -11 112 6 78 39 180 156 214 246 l20
51 -144 141 c-148 148 -216 233 -257 327 -32 73 -80 145 -132 199 -77 80 -98
112 -98 148 0 19 5 43 10 53 9 16 3 24 -36 51 -56 38 -48 51 32 54 103 4 202
-36 265 -108 27 -31 39 -52 89 -160 37 -79 92 -127 147 -127 28 0 33 4 33 23
0 13 -15 44 -32 68 l-33 44 0 190 c-1 204 -4 226 -39 295 -31 61 -92 106 -179
131 -126 36 -230 74 -234 86 -4 12 31 19 131 28 113 10 151 21 138 41 -13 21
-105 85 -151 106 -71 32 -130 45 -201 43 -110 -4 -180 -26 -343 -107 -43 -21
-83 -38 -88 -36 -9 3 142 100 211 136 35 19 109 76 110 85 0 4 -17 8 -37 8
-223 8 -327 -25 -482 -152 -76 -61 -148 -105 -159 -95 -3 3 14 56 37 118 49
132 55 159 38 170 -15 10 -13 11 -75 -18z"/>
<path d="M1790 9000 l0 -1885 400 0 400 0 0 1885 0 1885 -400 0 -400 0 0
-1885z"/>
<path d="M12604 10881 c-2 -2 -4 -851 -4 -1885 l0 -1881 400 0 400 0 0 1885 0
1885 -396 0 c-217 0 -397 -2 -400 -4z"/>
<path d="M902 9005 l3 -1650 395 0 395 0 0 1650 0 1650 -398 0 -397 0 2 -1650z"/>
<path d="M13494 10645 c-2 -5 -3 -748 -2 -1650 l3 -1640 398 0 397 0 0 1650 0
1650 -396 0 c-259 0 -398 -3 -400 -10z"/>
<path d="M4 10371 c-2 -2 -4 -635 -4 -1405 l0 -1401 400 0 400 0 -2 1405 -3
1405 -393 0 c-216 0 -395 -2 -398 -4z"/>
<path d="M14394 10371 c-7 -8 -4 -2801 4 -2802 4 -1 184 -2 400 -3 l392 -1 0
1405 0 1405 -396 0 c-218 0 -398 -2 -400 -4z"/>
<path d="M8795 8058 c-64 -38 -230 -121 -275 -137 -19 -7 -60 -19 -90 -25
l-55 -12 -132 -182 c-73 -101 -133 -185 -133 -188 0 -4 48 -3 108 0 59 3 166
8 237 12 72 3 162 7 200 9 179 10 676 17 701 10 26 -6 11 -14 -126 -70 -85
-34 -218 -88 -295 -120 -77 -32 -194 -79 -260 -106 -132 -53 -177 -90 -189
-154 -4 -19 -12 -35 -19 -35 -19 1 -103 55 -242 155 -74 53 -83 56 -120 50
-82 -13 -209 -82 -335 -182 -77 -62 -260 -244 -260 -259 0 -14 64 -40 175 -72
96 -27 112 -31 191 -39 122 -12 125 -12 232 66 132 94 139 94 102 -11 -15 -46
-26 -86 -24 -89 2 -4 68 -6 146 -4 242 5 291 21 588 199 315 188 608 318 793
352 71 12 202 92 281 171 96 95 119 198 68 296 -30 57 -110 133 -184 175 l-53
31 -170 1 c-181 1 -249 4 -360 15 -133 13 -162 23 -315 107 -129 71 -127 70
-185 36z"/>
<path d="M835 6070 c-3 -5 -1 -10 4 -10 6 0 11 5 11 10 0 6 -2 10 -4 10 -3 0
-8 -4 -11 -10z"/>
<path d="M4827 5844 c-179 -42 -272 -164 -262 -348 6 -127 86 -242 246 -357
144 -104 166 -122 211 -165 56 -55 80 -102 86 -169 5 -64 -17 -119 -56 -139
-37 -19 -107 -23 -154 -7 -52 17 -72 52 -74 135 -2 37 -5 71 -9 74 -8 8 -238
9 -250 1 -6 -5 -10 -37 -8 -76 9 -228 145 -340 413 -340 257 0 400 104 417
305 14 174 -47 289 -227 423 -36 27 -70 53 -77 59 -7 5 -16 10 -22 10 -5 0
-11 3 -13 8 -1 4 -26 24 -54 44 -102 75 -153 156 -149 238 3 83 43 120 130
123 101 2 143 -40 146 -147 l2 -57 131 3 131 3 -2 63 c-5 177 -93 282 -263
318 -85 17 -211 17 -293 -2z"/>
<path d="M8713 5844 c-121 -28 -207 -96 -244 -194 -21 -53 -22 -71 -22 -490
-1 -471 0 -477 55 -560 38 -57 87 -92 169 -121 83 -30 282 -33 369 -7 115 35
188 102 221 203 16 48 18 88 16 312 l-2 258 -200 0 -200 0 0 -95 0 -95 70 -5
70 -5 0 -150 c-1 -100 -5 -161 -14 -182 -16 -40 -68 -65 -132 -65 -58 1 -95
17 -122 54 -20 27 -21 42 -21 452 0 462 -1 452 58 491 35 23 135 23 174 0 44
-26 53 -51 56 -148 1 -48 5 -89 8 -92 5 -5 170 -9 241 -6 17 1 18 10 16 100
-3 119 -23 180 -78 243 -21 24 -59 53 -84 66 -98 49 -280 65 -404 36z"/>
<path d="M10120 5846 c-136 -29 -230 -111 -260 -224 -13 -49 -17 -855 -5 -912
35 -163 183 -258 402 -258 232 0 374 84 412 244 10 40 17 378 12 534 -1 13
-30 15 -201 15 -110 0 -200 -2 -201 -5 0 -3 -1 -47 -2 -98 l-2 -92 72 0 71 0
-2 -157 c-1 -136 -4 -163 -21 -190 -47 -79 -214 -72 -254 12 -11 22 -14 109
-14 429 0 221 3 415 7 432 17 75 122 111 217 73 44 -17 63 -64 64 -157 1 -45
4 -85 8 -88 3 -3 62 -6 131 -7 l125 -2 3 35 c6 68 -12 201 -33 246 -31 66
-106 128 -187 155 -79 27 -253 35 -342 15z"/>
<path d="M2345 5840 l-131 -5 1 -682 0 -683 122 0 123 0 0 453 c0 248 0 481 1
517 l1 65 18 -85 c11 -47 21 -98 24 -115 5 -30 21 -108 31 -155 4 -22 10 -52
21 -115 2 -11 19 -99 38 -195 20 -96 37 -186 40 -200 16 -83 27 -137 32 -152
5 -16 20 -18 119 -18 126 0 116 -6 131 75 4 22 8 45 10 50 1 6 7 37 13 70 6
33 14 71 17 85 3 14 7 36 10 50 2 14 20 105 40 202 19 97 37 187 39 200 3 13
17 86 32 163 l28 140 3 -517 2 -518 129 0 c94 0 130 3 133 13 7 19 3 1345 -3
1352 -5 4 -187 7 -359 5 l-35 0 -22 -122 c-13 -68 -25 -133 -27 -144 -2 -12
-7 -37 -10 -55 -12 -75 -26 -151 -55 -309 -17 -91 -33 -181 -36 -200 -5 -32
-17 -94 -21 -112 -1 -5 -2 -16 -3 -25 -2 -23 -9 -13 -15 22 -14 75 -77 423
-82 450 -3 17 -24 134 -47 260 l-42 230 -70 5 c-39 3 -129 3 -200 0z"/>
<path d="M3705 5840 l-130 -5 0 -545 c0 -300 3 -563 7 -586 28 -166 212 -268
452 -250 204 15 309 82 359 230 6 20 11 241 12 593 l2 562 -46 3 c-25 2 -86 2
-136 0 l-90 -3 1 -537 c1 -372 -3 -549 -10 -577 -15 -51 -55 -76 -129 -76 -73
-1 -117 22 -136 73 -4 13 -9 268 -9 567 0 298 -4 546 -9 550 -4 3 -66 4 -138
1z"/>
<path d="M6740 5842 l-165 -2 -23 -113 c-13 -61 -54 -258 -92 -437 -38 -179
-71 -336 -74 -350 -6 -34 -74 -355 -86 -407 -6 -23 -10 -47 -10 -52 0 -7 45
-11 129 -11 l129 0 12 73 c15 85 16 93 25 132 16 71 1 65 173 63 l157 -3 8
-40 c4 -22 16 -80 25 -130 l17 -90 138 -3 c157 -3 147 -11 122 95 -8 34 -17
75 -20 90 -12 69 -27 139 -45 218 -11 48 -67 310 -74 345 -2 14 -33 158 -67
322 -62 291 -63 296 -88 300 -15 1 -100 2 -191 0z m34 -332 c8 -47 18 -97 20
-113 3 -15 7 -35 10 -45 3 -9 7 -35 10 -57 4 -22 17 -98 31 -170 13 -71 26
-146 27 -165 l3 -35 -122 0 c-105 0 -122 2 -119 15 3 8 7 36 10 61 4 25 29
166 56 313 28 147 50 273 50 279 0 26 9 -4 24 -83z"/>
<path d="M7528 5842 l-148 -3 0 -684 0 -685 125 0 125 0 2 500 3 500 160 -478
c87 -262 163 -487 169 -499 9 -22 13 -23 151 -23 l142 0 0 685 c0 592 -2 685
-15 687 -8 2 -63 2 -123 0 l-109 -3 -2 -412 -3 -412 -29 90 c-16 50 -31 97
-34 105 -3 8 -51 152 -107 320 -118 355 -80 317 -307 312z"/>
<path d="M10837 5842 c-95 -3 -99 -7 -72 -59 17 -32 39 -83 120 -273 31 -74
65 -153 75 -175 10 -22 41 -94 69 -159 l51 -120 0 -293 0 -293 140 0 140 0 0
143 c1 78 1 210 1 292 l-1 150 168 390 168 390 -125 3 c-69 1 -130 1 -136 -2
-7 -2 -54 -115 -105 -250 -51 -136 -96 -243 -100 -239 -4 4 -39 94 -78 198
-95 252 -94 250 -91 250 1 0 -3 10 -9 22 -13 24 -63 30 -215 25z"/>
<path d="M11910 5840 l-85 -5 0 -680 1 -680 122 -3 122 -3 2 518 3 518 28
-140 c16 -77 30 -153 32 -169 3 -15 7 -35 9 -45 3 -9 8 -32 11 -51 3 -19 8
-42 10 -50 2 -8 7 -31 10 -50 3 -19 8 -42 10 -50 2 -8 7 -28 9 -45 3 -16 15
-77 26 -135 12 -58 23 -116 26 -130 17 -94 26 -137 30 -152 5 -16 19 -18 119
-18 125 0 119 -3 131 67 11 63 116 595 129 653 0 3 5 28 10 55 4 28 9 55 11
60 1 6 5 26 9 45 13 75 33 154 34 140 1 -8 2 -241 2 -518 l1 -503 131 3 132 3
0 680 1 680 -51 5 c-27 3 -117 3 -200 0 l-149 -5 -7 -40 c-7 -40 -15 -81 -23
-120 -2 -11 -7 -40 -11 -65 -4 -25 -9 -54 -11 -65 -12 -61 -40 -212 -59 -325
-9 -47 -20 -107 -25 -135 -16 -77 -19 -96 -25 -135 -3 -19 -9 -48 -14 -65 -8
-30 -8 -29 -15 15 -4 25 -14 79 -21 120 -8 41 -17 91 -21 110 -3 19 -12 71
-20 115 -8 44 -19 103 -24 130 -13 74 -19 109 -40 220 -10 55 -24 132 -31 172
l-13 72 -116 3 c-63 2 -153 1 -200 -2z"/>
<path d="M5477 5778 c0 -35 2 -79 2 -98 l1 -36 133 1 c72 1 138 -1 145 -3 9
-3 12 -130 12 -588 l0 -584 140 0 140 0 2 587 3 588 138 0 c93 0 140 4 145 12
4 6 7 49 6 95 l0 83 -435 3 -434 2 2 -62z"/>
<path d="M1915 4229 c107 -21 366 -68 402 -74 12 -2 34 -6 50 -9 15 -4 40 -9
56 -11 15 -3 39 -7 55 -10 15 -3 43 -8 62 -11 19 -3 42 -7 50 -9 8 -3 33 -7
55 -11 22 -3 58 -9 80 -14 22 -5 56 -12 75 -15 19 -3 71 -12 115 -20 44 -8 91
-16 105 -19 14 -2 36 -7 50 -10 14 -3 39 -7 55 -10 17 -3 55 -9 85 -15 30 -6
66 -12 80 -15 14 -2 151 -27 305 -56 154 -28 289 -53 300 -55 78 -14 143 -26
160 -29 38 -7 190 -35 220 -40 36 -6 349 -64 385 -71 35 -7 580 -106 610 -111
14 -2 45 -9 70 -14 25 -5 59 -11 75 -14 17 -2 53 -9 80 -14 28 -6 70 -13 95
-17 25 -4 49 -7 55 -8 5 -1 43 -22 85 -46 41 -24 93 -53 115 -65 22 -12 105
-60 185 -107 80 -47 168 -99 195 -115 28 -16 59 -34 70 -41 11 -6 34 -19 50
-28 17 -8 39 -21 50 -28 79 -49 148 -87 156 -87 5 0 9 -4 9 -10 0 -5 4 -10 9
-10 5 0 278 -157 608 -348 329 -192 607 -354 619 -360 23 -12 -16 -34 509 285
742 450 853 518 895 543 25 15 151 91 280 170 129 79 249 151 267 161 18 10
50 30 71 44 48 32 73 39 247 70 77 14 151 27 165 30 28 5 547 101 595 109 17
3 41 8 55 11 14 3 63 12 110 20 47 8 96 17 110 20 14 3 86 16 160 30 74 13
198 36 275 50 77 14 156 28 175 31 19 3 38 8 41 9 3 2 28 7 55 10 27 4 65 10
84 15 19 5 58 12 85 16 28 3 52 8 55 9 4 3 215 42 380 71 14 3 35 7 48 9 12 2
48 9 80 15 31 5 71 12 87 15 17 3 41 8 55 10 14 3 39 8 55 11 41 7 196 35 220
40 27 6 456 84 650 119 49 9 92 18 94 21 2 2 -1006 4 -2240 4 l-2244 0 -55
-41 c-45 -33 -223 -160 -280 -199 -27 -19 -424 -301 -445 -316 -30 -22 -207
-147 -232 -164 -11 -8 -50 -36 -85 -61 -34 -25 -118 -84 -185 -132 l-123 -86
-582 387 c-320 213 -587 389 -592 391 -6 2 -15 8 -21 13 -5 5 -71 49 -145 98
-74 49 -140 94 -147 99 -8 8 -699 11 -2260 10 l-2248 -1 100 -19z"/>
</g>
</svg>
