<?xml version="1.0" encoding="UTF-8" standalone="no"?>
<!DOCTYPE svg PUBLIC "-//W3C//DTD SVG 1.1//EN" "http://www.w3.org/Graphics/SVG/1.1/DTD/svg11.dtd">
<svg width="100%" height="100%" viewBox="0 0 1520 1080" version="1.1" xmlns="http://www.w3.org/2000/svg" xmlns:xlink="http://www.w3.org/1999/xlink" xml:space="preserve" xmlns:serif="http://www.serif.com/" style="fill-rule:evenodd;clip-rule:evenodd;stroke-linejoin:round;stroke-miterlimit:2;">
    <g id="Logo---Color" serif:id="Logo - Color">
        <g id="Horse">
            <g transform="matrix(1,0,0,1,-43,-11)">
                <path d="M1025,521C1025,521 994.216,522.334 965.399,518.804C948.593,516.745 930.881,500.116 926.396,502.849C892.11,523.738 880.688,522.335 880.688,522.335L853.233,560.211C853.233,560.211 993.73,552.365 979.853,557.833C947.34,570.644 922.267,581.722 903.482,588.867C885.372,595.756 896.052,609.54 886.213,603.672C868.948,593.375 859.435,583.553 856,584C827.492,587.705 793,629 793,629C793,629 812.842,639.735 841.573,640.612C846.222,640.753 861.814,625.056 866.213,625.568C868.697,625.857 859.193,643.107 861.687,643.312C882.822,645.042 904.479,642.212 916,635C999.48,582.743 1008.7,593.814 1025.08,584.265C1086.11,548.675 1025,521 1025,521Z" style="fill:rgb(27,27,27);"/>
            </g>
            <g transform="matrix(0.986384,0,0,0.983389,15.1135,1.62791)">
                <path d="M746.044,217.993C765.763,214.611 780.49,224.108 786.702,243.229C791.35,257.532 807.633,261.665 806.034,254.88C804.211,247.146 797.993,244.765 798.385,241.56C806.703,173.542 780.525,186.606 753.992,173.489C744.427,168.761 787.138,171.066 780.659,165.153C744.923,132.538 713.577,162.91 699.964,165.663C693.494,166.972 739.653,143.021 733.348,142.152C689.765,136.145 681.926,162.734 666.086,166.942C660.491,168.429 681.005,133.845 670.973,136.974C635.696,147.975 644.5,188.467 638.798,184.561C621.075,172.42 628.005,137.48 614.665,159.19C611.517,164.313 616.437,141.302 611.812,144.292C546.022,186.825 612.269,210.526 601.071,208.841C546.545,200.637 551.732,165.517 547.96,169.551C503.182,217.427 575.696,258.486 553.16,248.989C507.151,229.6 524.473,192.591 514.092,202.45C449.14,264.135 535.48,277.01 525.761,279.861C507.767,285.14 484.149,259.73 484.171,266.626C484.409,339.929 542.335,314.842 522.997,325.685C480.296,349.626 463.596,321.04 464.988,330.181C479.766,427.222 569.909,373.743 550.294,386.959C512.023,412.744 486.197,382.909 488.166,392.683C499.333,448.136 564.829,413.813 561.797,420.556C551.938,442.48 498.723,421.294 505.202,427.987C543.82,467.876 567.111,427.52 569.071,434.581C572.86,448.23 531.797,455.593 534.54,456.758C571.717,472.556 579.621,462.296 575.367,469.626C539.791,530.93 537.239,507.226 501.718,551.866C474.463,586.118 449,700 449,700L667.313,695.908C667.313,695.908 667.019,696.442 667.313,695.908C682.58,668.125 707.585,630.523 741.334,607.8C792.78,573.163 818.509,520.204 816.879,519.02C763.876,480.533 725.363,491.212 728.195,489.529C773.618,462.535 806.726,523.682 845.64,505.178C869.002,494.07 900.038,466.742 919.631,458.291C963.603,439.321 979.847,488.214 999.459,491.352C1005.39,492.301 1020.66,488.761 1020.66,488.761L1012.8,535.041C1012.8,535.041 1073.11,593.617 1076.73,584.823C1093.05,545.239 1079.27,535.133 1084.41,530.187C1088.77,525.994 1068.51,515.757 1070.12,511.696C1072.96,504.531 1077.33,499.617 1070.2,492.985C1034.33,459.6 990.081,419.445 977.368,405.718C968.488,396.129 951.242,393.64 950.466,393.582C932.646,392.258 881.719,417.611 877.404,419.107C847.678,429.42 826.487,423.952 826.937,423.519C832.43,418.242 863.888,422.399 855.595,417.539C784.524,375.886 729.904,422.386 731.934,415.897C741.415,385.585 814.674,392.189 806.873,389.848C620.636,333.968 643.812,259.102 647.383,268.465C675.166,341.302 745.808,309.357 747.743,318.526C753.349,345.086 775.509,343.902 778.669,346.37C792.777,357.39 819.506,320.307 813.469,314.497C798.378,299.973 779.993,284.476 774.381,268.689C768.981,253.496 756.087,245.399 751.759,237.679C749.41,233.489 752.356,226.707 753.035,226.238C753.979,225.586 738.984,219.204 746.044,217.993Z" style="fill:rgb(27,27,27);"/>
            </g>
            <path d="M735,235C735.699,234.858 737.125,236.203 737.125,236.203C741.302,240.434 758.163,257.386 762,262C762.256,262.308 761.338,262.488 760.949,262.582C760.143,262.779 759.305,262.866 758.475,262.858C755.955,262.834 753.424,262.8 750.923,262.485C747.027,261.995 735.402,255.111 735.202,254.036C734.351,249.449 734.313,246.889 734.416,242.197C734.453,240.475 734.568,238.755 734.708,237.038C734.763,236.354 734.882,235.676 735,235" style="fill:white;"/>
            <g transform="matrix(1,0,0,1,0,-1)">
                <path d="M799,307C797.356,305.592 793.083,303.042 792,304C791.205,304.704 791.43,310.758 794.007,314.237C795.555,316.327 797.312,317.487 802,316C803.235,315.608 801.156,308.846 799,307Z" style="fill:white;"/>
            </g>
        </g>
        <g transform="matrix(1,0,0,1,-1,-20.5)">
            <g transform="matrix(0.987654,0,0,1,0.0123457,0)">
                <rect x="1" y="283" width="81" height="281" style="fill:rgb(27,27,27);"/>
            </g>
            <g transform="matrix(0.987654,0,0,1.17438,90.0123,-77.3488)">
                <rect x="1" y="283" width="81" height="281" style="fill:rgb(27,27,27);"/>
            </g>
            <g transform="matrix(0.987654,0,0,1.34164,179.012,-147.683)">
                <rect x="1" y="283" width="81" height="281" style="fill:rgb(27,27,27);"/>
            </g>
        </g>
        <g transform="matrix(1,0,0,1,-1,-20.5)">
            <g transform="matrix(0.864198,0,0,0.964413,5.1358,15.0712)">
                <rect x="1" y="283" width="81" height="281" style="fill:rgb(194,31,16);"/>
            </g>
            <g transform="matrix(0.864198,0,0,1.13879,95.1358,-62.2776)">
                <rect x="1" y="283" width="81" height="281" style="fill:rgb(194,31,16);"/>
            </g>
            <g transform="matrix(0.864198,0,0,1.30605,184.136,-132.612)">
                <rect x="1" y="283" width="81" height="281" style="fill:rgb(194,31,16);"/>
            </g>
        </g>
        <g transform="matrix(1,0,0,1,-19,-9.5)">
            <g transform="matrix(-0.987654,0,0,1,1538.99,-11)">
                <rect x="1" y="283" width="81" height="281" style="fill:rgb(27,27,27);"/>
            </g>
            <g transform="matrix(-0.987654,0,0,1.17438,1448.99,-88.3488)">
                <rect x="1" y="283" width="81" height="281" style="fill:rgb(27,27,27);"/>
            </g>
            <g transform="matrix(-0.987654,0,0,1.34164,1359.99,-158.683)">
                <rect x="1" y="283" width="81" height="281" style="fill:rgb(27,27,27);"/>
            </g>
        </g>
        <g transform="matrix(-1,0,0,1,1520,-20.5)">
            <g transform="matrix(0.864198,0,0,0.964413,5.1358,15.0712)">
                <rect x="1" y="283" width="81" height="281" style="fill:rgb(194,31,16);"/>
            </g>
            <g transform="matrix(0.864198,0,0,1.13879,95.1358,-62.2776)">
                <rect x="1" y="283" width="81" height="281" style="fill:rgb(194,31,16);"/>
            </g>
            <g transform="matrix(0.864198,0,0,1.30605,184.136,-132.612)">
                <rect x="1" y="283" width="81" height="281" style="fill:rgb(194,31,16);"/>
            </g>
        </g>
        <g transform="matrix(1,0,0,1,18.5,-7)">
            <path d="M1355,882L903.288,882L762.491,982L611.961,882L161,882L548,952.949L763,1078L969,953L1355,882Z" style="fill:rgb(27,27,27);"/>
        </g>
        <g transform="matrix(0.98325,0,0,0.897959,31.1968,93)">
            <path d="M1298.05,877.545L908.373,876.432L762.491,990.909L606.876,876.432L194.562,875.318L545.966,942.926L763,1080.23L970.017,942.977L1298.05,877.545Z" style="fill:rgb(194,31,16);"/>
        </g>
        <g id="Shield" transform="matrix(1,0,0,1,-0.856562,-188.506)">
            <g transform="matrix(-1,0,0,1,1521.71,179.87)">
                <path d="M1186,342C1183.64,295.776 1218.07,245.443 1255.42,199.732C1267.79,184.59 1282.3,164.877 1280,152C1278.2,141.9 1193.44,28.542 781.414,15.716C774.299,15.495 759.44,15.271 759.44,15.271L760.651,76.975L760.643,76.975C760.643,76.975 786.838,77.625 800.332,78.348C964.945,87.175 1104.39,127.514 1171.86,151.343C1182.09,154.957 1172.51,163.037 1165.98,170.94C1104.06,245.874 1073.94,309.803 1111.61,382.816C1158.21,473.149 1156.98,533.64 1142.2,581.07C1122.55,644.148 1093.5,700.699 1093.5,700.699L1440,702L1202.83,648.779C1202.83,648.779 1202.59,649.571 1202.83,648.779C1227.02,570.731 1236.35,517.881 1226.01,492.563C1210.75,455.208 1195.46,422.757 1189.1,395.332C1184.32,374.69 1186.76,356.896 1186,342Z" style="fill:rgb(27,27,27);"/>
            </g>
            <g transform="matrix(1,0,0,1,0,179.87)">
                <path d="M1186,342C1183.64,295.776 1218.07,245.443 1255.42,199.732C1267.79,184.59 1282.3,164.877 1280,152C1278.2,141.9 1193.44,28.542 781.414,15.716C774.299,15.495 759.273,15.271 759.273,15.271L760.07,76.975C760.07,76.975 763.557,77.037 769.072,77.196C778.205,77.461 791.918,77.897 800.332,78.348C964.945,87.175 1104.39,127.514 1171.86,151.343C1182.09,154.957 1172.51,163.037 1165.98,170.94C1104.06,245.874 1073.94,309.803 1111.61,382.816C1158.21,473.149 1156.98,533.64 1142.2,581.07C1122.55,644.148 1093.5,700.699 1093.5,700.699L1440,702L1202.83,648.779C1202.83,648.779 1202.59,649.571 1202.83,648.779C1227.02,570.731 1236.35,517.881 1226.01,492.563C1210.75,455.208 1195.46,422.757 1189.1,395.332C1184.32,374.69 1186.76,356.896 1186,342Z" style="fill:rgb(27,27,27);"/>
            </g>
        </g>
        <g id="Shield1" serif:id="Shield" transform="matrix(1,0,0,1,-0.856562,-188.506)">
            <g transform="matrix(-1,0,0,1,1521.71,179.87)">
                <path d="M1178,341C1175.64,294.776 1211.07,244.443 1248.42,198.732C1260.79,183.59 1276.15,166.404 1272,154C1268.42,143.308 1193.44,32.542 781.414,19.716C774.299,19.495 758.44,19.271 758.44,19.271L760.651,76.975L760.547,71.673C760.547,71.673 787.838,71.625 801.332,72.348C965.945,81.175 1107.39,123.514 1174.86,147.343C1185.09,150.957 1180.51,162.037 1173.98,169.94C1112.06,244.874 1077.94,307.803 1115.61,380.816C1162.21,471.149 1162.98,533.64 1148.2,581.07C1128.55,644.148 1102.5,695.699 1102.5,695.699L1398,697L1200.83,653.779C1200.83,653.779 1194.59,652.571 1194.83,651.779C1219.02,573.731 1229.35,519.881 1219.01,494.563C1203.75,457.208 1190.01,428.623 1183.1,401.332C1177.72,380.098 1178.76,355.896 1178,341Z" style="fill:rgb(194,31,16);"/>
            </g>
            <g transform="matrix(1,0,0,1,1.27277,179.87)">
                <path d="M1178,341C1175.64,294.776 1211.07,244.443 1248.42,198.732C1260.79,183.59 1276.15,166.404 1272,154C1268.42,143.308 1193.44,32.542 781.414,19.716C774.299,19.495 758.44,19.271 758.44,19.271L760.651,76.975L760.547,71.673C760.547,71.673 787.838,71.625 801.332,72.348C965.945,81.175 1107.39,123.514 1174.86,147.343C1185.09,150.957 1180.51,162.037 1173.98,169.94C1112.06,244.874 1077.94,307.803 1115.61,380.816C1162.21,471.149 1162.98,533.64 1148.2,581.07C1128.55,644.148 1102.5,695.699 1102.5,695.699L1398,697L1200.83,653.779C1200.83,653.779 1194.59,652.571 1194.83,651.779C1219.02,573.731 1229.35,519.881 1219.01,494.563C1203.75,457.208 1190.01,428.623 1183.1,401.332C1177.72,380.098 1178.76,355.896 1178,341Z" style="fill:rgb(194,31,16);"/>
            </g>
        </g>
        <g id="Curves-Text" serif:id="Curves Text" transform="matrix(21.1952,0,0,16.3107,-5920.03,-12182.5)">
            <g transform="matrix(12,0,0,12,289.266,799.196)">
                <path d="M0.041,-0.7L0.198,-0.7L0.268,-0.199L0.27,-0.199L0.34,-0.7L0.497,-0.7L0.497,-0L0.393,-0L0.393,-0.53L0.391,-0.53L0.311,-0L0.219,-0L0.139,-0.53L0.137,-0.53L0.137,-0L0.041,-0L0.041,-0.7Z" style="fill:rgb(27,27,27);fill-rule:nonzero;"/>
            </g>
            <g transform="matrix(12,0,0,12,295.722,799.196)">
                <path d="M0.201,0.01C0.148,0.01 0.107,-0.005 0.079,-0.035C0.051,-0.066 0.037,-0.109 0.037,-0.166L0.037,-0.7L0.147,-0.7L0.147,-0.158C0.147,-0.134 0.152,-0.117 0.162,-0.106C0.171,-0.095 0.185,-0.09 0.203,-0.09C0.221,-0.09 0.235,-0.095 0.245,-0.106C0.254,-0.117 0.259,-0.134 0.259,-0.158L0.259,-0.7L0.365,-0.7L0.365,-0.166C0.365,-0.109 0.351,-0.066 0.323,-0.035C0.295,-0.005 0.254,0.01 0.201,0.01Z" style="fill:rgb(27,27,27);fill-rule:nonzero;"/>
            </g>
            <g transform="matrix(12,0,0,12,300.546,799.196)">
                <path d="M0.184,0.01C0.131,0.01 0.09,-0.005 0.063,-0.035C0.036,-0.066 0.022,-0.109 0.022,-0.166L0.022,-0.206L0.126,-0.206L0.126,-0.158C0.126,-0.113 0.145,-0.09 0.183,-0.09C0.202,-0.09 0.216,-0.096 0.226,-0.107C0.235,-0.117 0.24,-0.135 0.24,-0.16C0.24,-0.189 0.233,-0.215 0.22,-0.237C0.207,-0.26 0.182,-0.287 0.146,-0.318C0.101,-0.358 0.069,-0.394 0.051,-0.427C0.033,-0.459 0.024,-0.495 0.024,-0.536C0.024,-0.591 0.038,-0.634 0.066,-0.665C0.094,-0.695 0.135,-0.71 0.188,-0.71C0.241,-0.71 0.281,-0.695 0.308,-0.665C0.335,-0.634 0.348,-0.591 0.348,-0.534L0.348,-0.505L0.244,-0.505L0.244,-0.541C0.244,-0.565 0.239,-0.583 0.23,-0.594C0.221,-0.605 0.207,-0.61 0.189,-0.61C0.152,-0.61 0.134,-0.588 0.134,-0.543C0.134,-0.518 0.141,-0.494 0.155,-0.472C0.168,-0.45 0.193,-0.423 0.229,-0.392C0.275,-0.352 0.307,-0.316 0.324,-0.283C0.341,-0.25 0.35,-0.212 0.35,-0.168C0.35,-0.111 0.336,-0.067 0.308,-0.036C0.279,-0.005 0.238,0.01 0.184,0.01Z" style="fill:rgb(27,27,27);fill-rule:nonzero;"/>
            </g>
            <g transform="matrix(12,0,0,12,305.01,799.196)">
                <path d="M0.127,-0.6L0.012,-0.6L0.012,-0.7L0.352,-0.7L0.352,-0.6L0.237,-0.6L0.237,-0L0.127,-0L0.127,-0.6Z" style="fill:rgb(27,27,27);fill-rule:nonzero;"/>
            </g>
            <g transform="matrix(12,0,0,12,308.826,799.196)">
                <path d="M0.126,-0.7L0.275,-0.7L0.389,-0L0.279,-0L0.259,-0.139L0.259,-0.137L0.134,-0.137L0.114,-0L0.012,-0L0.126,-0.7ZM0.246,-0.232L0.197,-0.578L0.195,-0.578L0.147,-0.232L0.246,-0.232Z" style="fill:rgb(27,27,27);fill-rule:nonzero;"/>
            </g>
            <g transform="matrix(12,0,0,12,313.638,799.196)">
                <path d="M0.041,-0.7L0.179,-0.7L0.286,-0.281L0.288,-0.281L0.288,-0.7L0.386,-0.7L0.386,-0L0.273,-0L0.141,-0.511L0.139,-0.511L0.139,-0L0.041,-0L0.041,-0.7Z" style="fill:rgb(27,27,27);fill-rule:nonzero;"/>
            </g>
            <g transform="matrix(12,0,0,12,318.762,799.196)">
                <path d="M0.197,0.01C0.144,0.01 0.103,-0.005 0.075,-0.035C0.047,-0.066 0.033,-0.109 0.033,-0.166L0.033,-0.534C0.033,-0.591 0.047,-0.634 0.075,-0.665C0.103,-0.695 0.144,-0.71 0.197,-0.71C0.25,-0.71 0.291,-0.695 0.319,-0.665C0.347,-0.634 0.361,-0.591 0.361,-0.534L0.361,-0.474L0.257,-0.474L0.257,-0.541C0.257,-0.587 0.238,-0.61 0.2,-0.61C0.162,-0.61 0.143,-0.587 0.143,-0.541L0.143,-0.158C0.143,-0.113 0.162,-0.09 0.2,-0.09C0.238,-0.09 0.257,-0.113 0.257,-0.158L0.257,-0.295L0.202,-0.295L0.202,-0.395L0.361,-0.395L0.361,-0.166C0.361,-0.109 0.347,-0.066 0.319,-0.035C0.291,-0.005 0.25,0.01 0.197,0.01Z" style="fill:rgb(27,27,27);fill-rule:nonzero;"/>
            </g>
            <g transform="matrix(12,0,0,12,325.374,799.196)">
                <path d="M0.197,0.01C0.144,0.01 0.103,-0.005 0.075,-0.035C0.047,-0.066 0.033,-0.109 0.033,-0.166L0.033,-0.534C0.033,-0.591 0.047,-0.634 0.075,-0.665C0.103,-0.695 0.144,-0.71 0.197,-0.71C0.25,-0.71 0.291,-0.695 0.319,-0.665C0.347,-0.634 0.361,-0.591 0.361,-0.534L0.361,-0.474L0.257,-0.474L0.257,-0.541C0.257,-0.587 0.238,-0.61 0.2,-0.61C0.162,-0.61 0.143,-0.587 0.143,-0.541L0.143,-0.158C0.143,-0.113 0.162,-0.09 0.2,-0.09C0.238,-0.09 0.257,-0.113 0.257,-0.158L0.257,-0.295L0.202,-0.295L0.202,-0.395L0.361,-0.395L0.361,-0.166C0.361,-0.109 0.347,-0.066 0.319,-0.035C0.291,-0.005 0.25,0.01 0.197,0.01Z" style="fill:rgb(27,27,27);fill-rule:nonzero;"/>
            </g>
            <g transform="matrix(12,0,0,12,329.886,799.196)">
                <path d="M0.142,-0.298L0.009,-0.7L0.126,-0.7L0.201,-0.443L0.203,-0.443L0.278,-0.7L0.385,-0.7L0.252,-0.298L0.252,-0L0.142,-0L0.142,-0.298Z" style="fill:rgb(27,27,27);fill-rule:nonzero;"/>
            </g>
            <g transform="matrix(12,0,0,12,334.614,799.196)">
                <path d="M0.041,-0.7L0.198,-0.7L0.268,-0.199L0.27,-0.199L0.34,-0.7L0.497,-0.7L0.497,-0L0.393,-0L0.393,-0.53L0.391,-0.53L0.311,-0L0.219,-0L0.139,-0.53L0.137,-0.53L0.137,-0L0.041,-0L0.041,-0.7Z" style="fill:rgb(27,27,27);fill-rule:nonzero;"/>
            </g>
        </g>
    </g>
</svg>
